<svg
        xmlns="http://www.w3.org/2000/svg"
        version="1.1"
        xmlns:xlink="http://www.w3.org/1999/xlink"
        xmlns:svgjs="http://svgjs.dev/svgjs"
        viewBox="0 0 800 800"
      >
        <g
          fill="#3d5378"
          id="cloud"
          transform="matrix(1,0,0,1,10,0)"
        >
          <path
            d="M 619.3780064152052 833.2536221167175 A  69 69 0 1 1 -77.51197894047425 422.7272727736563 A  69 69 0 1 1 -227.03350821145614 144.73684166320345 A  69 69 0 1 1 77.27271565892443 117.46409422365105 A  69 69 0 1 1 151.91393005731322 290.6698775785626 A  69 69 0 1 1 250.47842939244026 397.60766810796486 A  69 69 0 1 1 199.52158011241409 576.5549843064218 A  69 69 0 1 1 473.92338928171193 698.3252889873493 A  69 69 0 1 1 619.3780064152052 833.2536221167175 Z"
            stroke-linecap="round"
            stroke-linejoin="round"
          ></path>
        </g>
      </svg>